<mxfile host="app.diagrams.net" agent="Mozilla/5.0 (Macintosh; Intel Mac OS X 10_15_7) AppleWebKit/605.1.15 (KHTML, like Gecko) Version/18.0 Safari/605.1.15" version="26.0.11">
  <diagram name="Page-1" id="UmQpy1SQtzT-f7T2Tqup">
    <mxGraphModel dx="2417" dy="1078" grid="1" gridSize="10" guides="1" tooltips="1" connect="1" arrows="1" fold="1" page="1" pageScale="1" pageWidth="827" pageHeight="1169" math="0" shadow="0">
      <root>
        <mxCell id="0" />
        <mxCell id="1" parent="0" />
        <mxCell id="Sbq3aa2Fa-XjTyS6zx-i-1" value="User" style="rounded=0;whiteSpace=wrap;html=1;" parent="1" vertex="1">
          <mxGeometry x="135" y="190" width="120" height="60" as="geometry" />
        </mxCell>
        <mxCell id="Sbq3aa2Fa-XjTyS6zx-i-2" value="Email" style="ellipse;whiteSpace=wrap;html=1;" parent="1" vertex="1">
          <mxGeometry x="270" y="280" width="80" height="50" as="geometry" />
        </mxCell>
        <mxCell id="Sbq3aa2Fa-XjTyS6zx-i-3" value="DOB" style="ellipse;whiteSpace=wrap;html=1;" parent="1" vertex="1">
          <mxGeometry x="50" y="275" width="80" height="55" as="geometry" />
        </mxCell>
        <mxCell id="Sbq3aa2Fa-XjTyS6zx-i-5" value="" style="ellipse;whiteSpace=wrap;html=1;" parent="1" vertex="1">
          <mxGeometry x="30" y="100" width="90" height="60" as="geometry" />
        </mxCell>
        <mxCell id="Sbq3aa2Fa-XjTyS6zx-i-6" value="Name" style="ellipse;whiteSpace=wrap;html=1;" parent="1" vertex="1">
          <mxGeometry x="150" y="100" width="90" height="60" as="geometry" />
        </mxCell>
        <mxCell id="Sbq3aa2Fa-XjTyS6zx-i-10" value="" style="edgeStyle=orthogonalEdgeStyle;rounded=0;orthogonalLoop=1;jettySize=auto;html=1;" parent="1" source="Sbq3aa2Fa-XjTyS6zx-i-7" target="Sbq3aa2Fa-XjTyS6zx-i-1" edge="1">
          <mxGeometry relative="1" as="geometry" />
        </mxCell>
        <mxCell id="Sbq3aa2Fa-XjTyS6zx-i-7" value="User ID" style="ellipse;whiteSpace=wrap;html=1;align=center;fontStyle=4;" parent="1" vertex="1">
          <mxGeometry x="10" y="200" width="100" height="40" as="geometry" />
        </mxCell>
        <mxCell id="Sbq3aa2Fa-XjTyS6zx-i-8" value="Phone No." style="ellipse;shape=doubleEllipse;margin=3;whiteSpace=wrap;html=1;align=center;" parent="1" vertex="1">
          <mxGeometry x="280" y="100" width="100" height="60" as="geometry" />
        </mxCell>
        <mxCell id="Sbq3aa2Fa-XjTyS6zx-i-21" value="" style="endArrow=none;html=1;rounded=0;exitX=1;exitY=0.75;exitDx=0;exitDy=0;" parent="1" source="Sbq3aa2Fa-XjTyS6zx-i-1" target="Sbq3aa2Fa-XjTyS6zx-i-2" edge="1">
          <mxGeometry relative="1" as="geometry">
            <mxPoint x="495" y="400" as="sourcePoint" />
            <mxPoint x="655" y="400" as="targetPoint" />
          </mxGeometry>
        </mxCell>
        <mxCell id="Sbq3aa2Fa-XjTyS6zx-i-23" value="" style="endArrow=none;html=1;rounded=0;entryX=1;entryY=0.25;entryDx=0;entryDy=0;" parent="1" source="Sbq3aa2Fa-XjTyS6zx-i-8" target="Sbq3aa2Fa-XjTyS6zx-i-1" edge="1">
          <mxGeometry relative="1" as="geometry">
            <mxPoint x="380" y="196" as="sourcePoint" />
            <mxPoint x="417" y="244" as="targetPoint" />
          </mxGeometry>
        </mxCell>
        <mxCell id="Sbq3aa2Fa-XjTyS6zx-i-27" value="" style="endArrow=none;html=1;rounded=0;entryX=0.75;entryY=0;entryDx=0;entryDy=0;" parent="1" source="Sbq3aa2Fa-XjTyS6zx-i-6" target="Sbq3aa2Fa-XjTyS6zx-i-1" edge="1">
          <mxGeometry relative="1" as="geometry">
            <mxPoint x="390" y="206" as="sourcePoint" />
            <mxPoint x="427" y="254" as="targetPoint" />
          </mxGeometry>
        </mxCell>
        <mxCell id="Sbq3aa2Fa-XjTyS6zx-i-29" value="" style="endArrow=none;html=1;rounded=0;exitX=1;exitY=1;exitDx=0;exitDy=0;" parent="1" source="Sbq3aa2Fa-XjTyS6zx-i-5" edge="1">
          <mxGeometry relative="1" as="geometry">
            <mxPoint x="20" y="180" as="sourcePoint" />
            <mxPoint x="180" y="190" as="targetPoint" />
          </mxGeometry>
        </mxCell>
        <mxCell id="Sbq3aa2Fa-XjTyS6zx-i-30" value="" style="endArrow=none;html=1;rounded=0;" parent="1" edge="1">
          <mxGeometry relative="1" as="geometry">
            <mxPoint x="254" y="219.5" as="sourcePoint" />
            <mxPoint x="400" y="220" as="targetPoint" />
          </mxGeometry>
        </mxCell>
        <mxCell id="Sbq3aa2Fa-XjTyS6zx-i-31" value="Shop" style="rhombus;whiteSpace=wrap;html=1;" parent="1" vertex="1">
          <mxGeometry x="380" y="180" width="80" height="80" as="geometry" />
        </mxCell>
        <mxCell id="Sbq3aa2Fa-XjTyS6zx-i-32" value="" style="endArrow=none;html=1;rounded=0;" parent="1" edge="1">
          <mxGeometry relative="1" as="geometry">
            <mxPoint x="460" y="219.5" as="sourcePoint" />
            <mxPoint x="540" y="220" as="targetPoint" />
          </mxGeometry>
        </mxCell>
        <mxCell id="Sbq3aa2Fa-XjTyS6zx-i-33" value="Cart" style="rounded=0;whiteSpace=wrap;html=1;" parent="1" vertex="1">
          <mxGeometry x="530" y="190" width="120" height="60" as="geometry" />
        </mxCell>
        <mxCell id="Sbq3aa2Fa-XjTyS6zx-i-45" value="" style="endArrow=none;html=1;rounded=0;entryX=0.5;entryY=1;entryDx=0;entryDy=0;" parent="1" target="Sbq3aa2Fa-XjTyS6zx-i-1" edge="1">
          <mxGeometry relative="1" as="geometry">
            <mxPoint x="130" y="290" as="sourcePoint" />
            <mxPoint x="200" y="260" as="targetPoint" />
          </mxGeometry>
        </mxCell>
        <mxCell id="Sbq3aa2Fa-XjTyS6zx-i-46" value="" style="endArrow=none;html=1;rounded=0;exitX=1;exitY=1;exitDx=0;exitDy=0;" parent="1" source="Sbq3aa2Fa-XjTyS6zx-i-33" edge="1">
          <mxGeometry relative="1" as="geometry">
            <mxPoint x="650" y="304.5" as="sourcePoint" />
            <mxPoint x="730" y="280" as="targetPoint" />
          </mxGeometry>
        </mxCell>
        <mxCell id="Sbq3aa2Fa-XjTyS6zx-i-47" value="Contains" style="shape=rhombus;perimeter=rhombusPerimeter;whiteSpace=wrap;html=1;align=center;" parent="1" vertex="1">
          <mxGeometry x="670" y="280" width="120" height="60" as="geometry" />
        </mxCell>
        <mxCell id="Sbq3aa2Fa-XjTyS6zx-i-48" value="" style="endArrow=none;html=1;rounded=0;entryX=0.5;entryY=1;entryDx=0;entryDy=0;" parent="1" target="Sbq3aa2Fa-XjTyS6zx-i-47" edge="1">
          <mxGeometry relative="1" as="geometry">
            <mxPoint x="730" y="400" as="sourcePoint" />
            <mxPoint x="730" y="400" as="targetPoint" />
          </mxGeometry>
        </mxCell>
        <mxCell id="Sbq3aa2Fa-XjTyS6zx-i-49" value="Product" style="whiteSpace=wrap;html=1;align=center;" parent="1" vertex="1">
          <mxGeometry x="680" y="390" width="100" height="40" as="geometry" />
        </mxCell>
        <mxCell id="Sbq3aa2Fa-XjTyS6zx-i-50" value="Stock" style="ellipse;whiteSpace=wrap;html=1;align=center;" parent="1" vertex="1">
          <mxGeometry x="580" y="460" width="100" height="40" as="geometry" />
        </mxCell>
        <mxCell id="Sbq3aa2Fa-XjTyS6zx-i-51" value="" style="endArrow=none;html=1;rounded=0;entryX=0.25;entryY=1;entryDx=0;entryDy=0;" parent="1" target="Sbq3aa2Fa-XjTyS6zx-i-49" edge="1">
          <mxGeometry relative="1" as="geometry">
            <mxPoint x="630" y="460" as="sourcePoint" />
            <mxPoint x="790" y="460" as="targetPoint" />
          </mxGeometry>
        </mxCell>
        <mxCell id="Sbq3aa2Fa-XjTyS6zx-i-52" value="MRP" style="ellipse;whiteSpace=wrap;html=1;align=center;" parent="1" vertex="1">
          <mxGeometry x="730" y="460" width="100" height="40" as="geometry" />
        </mxCell>
        <mxCell id="Sbq3aa2Fa-XjTyS6zx-i-53" value="" style="endArrow=none;html=1;rounded=0;entryX=0.5;entryY=0;entryDx=0;entryDy=0;exitX=0.5;exitY=1;exitDx=0;exitDy=0;" parent="1" source="Sbq3aa2Fa-XjTyS6zx-i-49" target="Sbq3aa2Fa-XjTyS6zx-i-52" edge="1">
          <mxGeometry relative="1" as="geometry">
            <mxPoint x="710" y="450" as="sourcePoint" />
            <mxPoint x="870" y="450" as="targetPoint" />
          </mxGeometry>
        </mxCell>
        <mxCell id="Sbq3aa2Fa-XjTyS6zx-i-54" value="" style="endArrow=none;html=1;rounded=0;entryX=0.38;entryY=0.05;entryDx=0;entryDy=0;entryPerimeter=0;" parent="1" edge="1">
          <mxGeometry relative="1" as="geometry">
            <mxPoint x="780" y="430" as="sourcePoint" />
            <mxPoint x="888" y="462" as="targetPoint" />
          </mxGeometry>
        </mxCell>
        <mxCell id="Sbq3aa2Fa-XjTyS6zx-i-56" value="Product ID" style="ellipse;whiteSpace=wrap;html=1;align=center;fontStyle=4;" parent="1" vertex="1">
          <mxGeometry x="860" y="460" width="100" height="40" as="geometry" />
        </mxCell>
        <mxCell id="Sbq3aa2Fa-XjTyS6zx-i-59" value="Cart ID*" style="ellipse;whiteSpace=wrap;html=1;align=center;" parent="1" vertex="1">
          <mxGeometry x="875" y="390" width="100" height="40" as="geometry" />
        </mxCell>
        <mxCell id="Sbq3aa2Fa-XjTyS6zx-i-60" value="" style="endArrow=none;html=1;rounded=0;entryX=0;entryY=0.5;entryDx=0;entryDy=0;" parent="1" target="Sbq3aa2Fa-XjTyS6zx-i-59" edge="1">
          <mxGeometry relative="1" as="geometry">
            <mxPoint x="780" y="409.5" as="sourcePoint" />
            <mxPoint x="850" y="410" as="targetPoint" />
          </mxGeometry>
        </mxCell>
        <mxCell id="Sbq3aa2Fa-XjTyS6zx-i-62" value="User ID*" style="ellipse;whiteSpace=wrap;html=1;align=center;" parent="1" vertex="1">
          <mxGeometry x="620" y="110" width="100" height="40" as="geometry" />
        </mxCell>
        <mxCell id="Sbq3aa2Fa-XjTyS6zx-i-63" value="Cart ID" style="ellipse;whiteSpace=wrap;html=1;align=center;fontStyle=4;" parent="1" vertex="1">
          <mxGeometry x="490" y="110" width="100" height="40" as="geometry" />
        </mxCell>
        <mxCell id="Sbq3aa2Fa-XjTyS6zx-i-64" value="" style="endArrow=none;html=1;rounded=0;entryX=0.5;entryY=1;entryDx=0;entryDy=0;exitX=0.5;exitY=0;exitDx=0;exitDy=0;" parent="1" source="Sbq3aa2Fa-XjTyS6zx-i-33" target="Sbq3aa2Fa-XjTyS6zx-i-63" edge="1">
          <mxGeometry relative="1" as="geometry">
            <mxPoint x="400" y="300" as="sourcePoint" />
            <mxPoint x="560" y="300" as="targetPoint" />
          </mxGeometry>
        </mxCell>
        <mxCell id="Sbq3aa2Fa-XjTyS6zx-i-65" value="" style="endArrow=none;html=1;rounded=0;entryX=0.5;entryY=1;entryDx=0;entryDy=0;exitX=0.75;exitY=0;exitDx=0;exitDy=0;" parent="1" source="Sbq3aa2Fa-XjTyS6zx-i-33" target="Sbq3aa2Fa-XjTyS6zx-i-62" edge="1">
          <mxGeometry relative="1" as="geometry">
            <mxPoint x="400" y="300" as="sourcePoint" />
            <mxPoint x="560" y="300" as="targetPoint" />
          </mxGeometry>
        </mxCell>
        <mxCell id="Sbq3aa2Fa-XjTyS6zx-i-66" value="Total Amount" style="ellipse;whiteSpace=wrap;html=1;align=center;dashed=1;" parent="1" vertex="1">
          <mxGeometry x="680" y="200" width="100" height="40" as="geometry" />
        </mxCell>
        <mxCell id="Sbq3aa2Fa-XjTyS6zx-i-67" value="" style="endArrow=none;html=1;rounded=0;entryX=0;entryY=0.5;entryDx=0;entryDy=0;exitX=1;exitY=0.5;exitDx=0;exitDy=0;" parent="1" source="Sbq3aa2Fa-XjTyS6zx-i-33" target="Sbq3aa2Fa-XjTyS6zx-i-66" edge="1">
          <mxGeometry relative="1" as="geometry">
            <mxPoint x="410" y="310" as="sourcePoint" />
            <mxPoint x="570" y="310" as="targetPoint" />
          </mxGeometry>
        </mxCell>
        <mxCell id="Sbq3aa2Fa-XjTyS6zx-i-68" value="" style="endArrow=none;html=1;rounded=0;entryX=0;entryY=0;entryDx=0;entryDy=0;" parent="1" target="Sbq3aa2Fa-XjTyS6zx-i-49" edge="1">
          <mxGeometry relative="1" as="geometry">
            <mxPoint x="470" y="480" as="sourcePoint" />
            <mxPoint x="570" y="390" as="targetPoint" />
          </mxGeometry>
        </mxCell>
        <mxCell id="Sbq3aa2Fa-XjTyS6zx-i-69" value="has" style="shape=rhombus;perimeter=rhombusPerimeter;whiteSpace=wrap;html=1;align=center;" parent="1" vertex="1">
          <mxGeometry x="410" y="480" width="120" height="60" as="geometry" />
        </mxCell>
        <mxCell id="Sbq3aa2Fa-XjTyS6zx-i-70" value="" style="endArrow=none;html=1;rounded=0;entryX=0;entryY=1;entryDx=0;entryDy=0;" parent="1" target="Sbq3aa2Fa-XjTyS6zx-i-69" edge="1">
          <mxGeometry relative="1" as="geometry">
            <mxPoint x="360" y="560" as="sourcePoint" />
            <mxPoint x="410" y="540" as="targetPoint" />
          </mxGeometry>
        </mxCell>
        <mxCell id="Sbq3aa2Fa-XjTyS6zx-i-71" value="Product Category" style="whiteSpace=wrap;html=1;align=center;" parent="1" vertex="1">
          <mxGeometry x="311" y="560" width="100" height="40" as="geometry" />
        </mxCell>
        <mxCell id="Sbq3aa2Fa-XjTyS6zx-i-72" value="" style="endArrow=none;html=1;rounded=0;entryX=0.25;entryY=0;entryDx=0;entryDy=0;" parent="1" target="Sbq3aa2Fa-XjTyS6zx-i-71" edge="1">
          <mxGeometry relative="1" as="geometry">
            <mxPoint x="336" y="500" as="sourcePoint" />
            <mxPoint x="570" y="390" as="targetPoint" />
            <Array as="points">
              <mxPoint x="336" y="520" />
            </Array>
          </mxGeometry>
        </mxCell>
        <mxCell id="Sbq3aa2Fa-XjTyS6zx-i-73" value="Name" style="ellipse;whiteSpace=wrap;html=1;align=center;" parent="1" vertex="1">
          <mxGeometry x="290" y="460" width="100" height="40" as="geometry" />
        </mxCell>
        <mxCell id="Sbq3aa2Fa-XjTyS6zx-i-75" value="" style="endArrow=none;html=1;rounded=0;exitX=0.5;exitY=1;exitDx=0;exitDy=0;" parent="1" source="Sbq3aa2Fa-XjTyS6zx-i-71" edge="1">
          <mxGeometry relative="1" as="geometry">
            <mxPoint x="360" y="670" as="sourcePoint" />
            <mxPoint x="360" y="640" as="targetPoint" />
          </mxGeometry>
        </mxCell>
        <mxCell id="Sbq3aa2Fa-XjTyS6zx-i-76" value="Description" style="ellipse;whiteSpace=wrap;html=1;align=center;" parent="1" vertex="1">
          <mxGeometry x="310" y="640" width="100" height="40" as="geometry" />
        </mxCell>
        <mxCell id="Sbq3aa2Fa-XjTyS6zx-i-77" value="" style="endArrow=none;html=1;rounded=0;exitX=1;exitY=1;exitDx=0;exitDy=0;" parent="1" source="Sbq3aa2Fa-XjTyS6zx-i-1" edge="1">
          <mxGeometry relative="1" as="geometry">
            <mxPoint x="280" y="450" as="sourcePoint" />
            <mxPoint x="40" y="420" as="targetPoint" />
          </mxGeometry>
        </mxCell>
        <mxCell id="Sbq3aa2Fa-XjTyS6zx-i-78" value="Places" style="shape=rhombus;perimeter=rhombusPerimeter;whiteSpace=wrap;html=1;align=center;" parent="1" vertex="1">
          <mxGeometry x="-20" y="420" width="120" height="60" as="geometry" />
        </mxCell>
        <mxCell id="Sbq3aa2Fa-XjTyS6zx-i-79" value="Order" style="whiteSpace=wrap;html=1;align=center;" parent="1" vertex="1">
          <mxGeometry x="180" y="720" width="100" height="40" as="geometry" />
        </mxCell>
        <mxCell id="Sbq3aa2Fa-XjTyS6zx-i-94" value="" style="endArrow=none;html=1;rounded=0;exitX=0.5;exitY=1;exitDx=0;exitDy=0;entryX=0.5;entryY=0;entryDx=0;entryDy=0;" parent="1" source="Sbq3aa2Fa-XjTyS6zx-i-78" target="Sbq3aa2Fa-XjTyS6zx-i-79" edge="1">
          <mxGeometry relative="1" as="geometry">
            <mxPoint x="280" y="50" as="sourcePoint" />
            <mxPoint x="250" y="700" as="targetPoint" />
          </mxGeometry>
        </mxCell>
        <mxCell id="Sbq3aa2Fa-XjTyS6zx-i-95" value="amount" style="ellipse;whiteSpace=wrap;html=1;align=center;" parent="1" vertex="1">
          <mxGeometry x="330" y="720" width="100" height="40" as="geometry" />
        </mxCell>
        <mxCell id="Sbq3aa2Fa-XjTyS6zx-i-96" value="" style="endArrow=none;html=1;rounded=0;exitX=1;exitY=0.5;exitDx=0;exitDy=0;entryX=0;entryY=0.5;entryDx=0;entryDy=0;" parent="1" source="Sbq3aa2Fa-XjTyS6zx-i-79" target="Sbq3aa2Fa-XjTyS6zx-i-95" edge="1">
          <mxGeometry relative="1" as="geometry">
            <mxPoint x="350" y="680" as="sourcePoint" />
            <mxPoint x="510" y="680" as="targetPoint" />
            <Array as="points" />
          </mxGeometry>
        </mxCell>
        <mxCell id="Sbq3aa2Fa-XjTyS6zx-i-99" value="" style="endArrow=none;html=1;rounded=0;exitX=1;exitY=0.75;exitDx=0;exitDy=0;entryX=0;entryY=0;entryDx=0;entryDy=0;" parent="1" source="Sbq3aa2Fa-XjTyS6zx-i-79" target="Sbq3aa2Fa-XjTyS6zx-i-101" edge="1">
          <mxGeometry relative="1" as="geometry">
            <mxPoint x="281" y="820" as="sourcePoint" />
            <mxPoint x="330" y="800" as="targetPoint" />
          </mxGeometry>
        </mxCell>
        <mxCell id="Sbq3aa2Fa-XjTyS6zx-i-101" value="Order ID" style="ellipse;whiteSpace=wrap;html=1;align=center;fontStyle=4;" parent="1" vertex="1">
          <mxGeometry x="330" y="780" width="100" height="40" as="geometry" />
        </mxCell>
        <mxCell id="Sbq3aa2Fa-XjTyS6zx-i-102" value="U-ID*" style="ellipse;whiteSpace=wrap;html=1;align=center;" parent="1" vertex="1">
          <mxGeometry x="180" y="810" width="100" height="40" as="geometry" />
        </mxCell>
        <mxCell id="Sbq3aa2Fa-XjTyS6zx-i-103" value="" style="endArrow=none;html=1;rounded=0;entryX=0.5;entryY=1;entryDx=0;entryDy=0;exitX=0.5;exitY=0;exitDx=0;exitDy=0;" parent="1" source="Sbq3aa2Fa-XjTyS6zx-i-102" target="Sbq3aa2Fa-XjTyS6zx-i-79" edge="1">
          <mxGeometry relative="1" as="geometry">
            <mxPoint x="130" y="799.5" as="sourcePoint" />
            <mxPoint x="290" y="799.5" as="targetPoint" />
          </mxGeometry>
        </mxCell>
        <mxCell id="Sbq3aa2Fa-XjTyS6zx-i-104" value="" style="endArrow=none;html=1;rounded=0;" parent="1" edge="1">
          <mxGeometry relative="1" as="geometry">
            <mxPoint x="250" y="760" as="sourcePoint" />
            <mxPoint x="390" y="910" as="targetPoint" />
          </mxGeometry>
        </mxCell>
        <mxCell id="Sbq3aa2Fa-XjTyS6zx-i-105" value="has" style="shape=rhombus;perimeter=rhombusPerimeter;whiteSpace=wrap;html=1;align=center;" parent="1" vertex="1">
          <mxGeometry x="354" y="900" width="120" height="60" as="geometry" />
        </mxCell>
        <mxCell id="Sbq3aa2Fa-XjTyS6zx-i-106" value="" style="endArrow=none;html=1;rounded=0;exitX=1;exitY=1;exitDx=0;exitDy=0;" parent="1" source="Sbq3aa2Fa-XjTyS6zx-i-105" edge="1">
          <mxGeometry relative="1" as="geometry">
            <mxPoint x="480" y="1000" as="sourcePoint" />
            <mxPoint x="520" y="1000" as="targetPoint" />
          </mxGeometry>
        </mxCell>
        <mxCell id="Sbq3aa2Fa-XjTyS6zx-i-107" value="shipping" style="whiteSpace=wrap;html=1;align=center;" parent="1" vertex="1">
          <mxGeometry x="480" y="1000" width="100" height="40" as="geometry" />
        </mxCell>
        <mxCell id="Sbq3aa2Fa-XjTyS6zx-i-108" value="" style="endArrow=none;html=1;rounded=0;exitX=0.75;exitY=0;exitDx=0;exitDy=0;" parent="1" source="Sbq3aa2Fa-XjTyS6zx-i-107" edge="1">
          <mxGeometry relative="1" as="geometry">
            <mxPoint x="560" y="960" as="sourcePoint" />
            <mxPoint x="600" y="960" as="targetPoint" />
          </mxGeometry>
        </mxCell>
      </root>
    </mxGraphModel>
  </diagram>
</mxfile>
